<svg xmlns="http://www.w3.org/2000/svg" xmlns:xlink="http://www.w3.org/1999/xlink" width="387" zoomAndPan="magnify" viewBox="0 0 290.25 152.249993" height="203" preserveAspectRatio="xMidYMid meet" version="1.0"><defs><clipPath id="86f222dd60"><path d="M 144.4375 101.746094 L 155.804688 101.746094 L 155.804688 113.117188 L 144.4375 113.117188 Z M 144.4375 101.746094 " clip-rule="nonzero"/></clipPath><clipPath id="65a78c2bc3"><path d="M 150.121094 101.746094 C 146.980469 101.746094 144.4375 104.292969 144.4375 107.433594 C 144.4375 110.570312 146.980469 113.117188 150.121094 113.117188 C 153.261719 113.117188 155.804688 110.570312 155.804688 107.433594 C 155.804688 104.292969 153.261719 101.746094 150.121094 101.746094 Z M 150.121094 101.746094 " clip-rule="nonzero"/></clipPath><clipPath id="3046558fde"><path d="M 1 0 L 170 0 L 170 150.757812 L 1 150.757812 Z M 1 0 " clip-rule="nonzero"/></clipPath></defs><g clip-path="url(#86f222dd60)"><g clip-path="url(#65a78c2bc3)"><path fill="#9c91c5" d="M 144.4375 101.746094 L 155.804688 101.746094 L 155.804688 113.117188 L 144.4375 113.117188 Z M 144.4375 101.746094 " fill-opacity="1" fill-rule="nonzero"/></g></g><g clip-path="url(#3046558fde)"><path fill="#c9b6e4" d="M 14.929688 150.949219 C 14.75 150.949219 14.570312 150.949219 14.390625 150.949219 C 11.171875 150.769531 8.230469 149.027344 5.390625 145.609375 C 1.695312 141.160156 0.625 135.96875 2.316406 130.617188 C 5.421875 120.796875 17.199219 112.320312 26.542969 106.949219 C 39.105469 99.707031 55.152344 93.335938 72.941406 88.488281 C 95.898438 82.25 113.949219 72.066406 125.050781 64.609375 C 135.808594 57.382812 142.214844 51.339844 143.445312 50.140625 C 143.871094 49.433594 145.253906 46.90625 145.152344 43.917969 C 145.070312 41.339844 145.171875 39.1875 147.320312 36.839844 C 148.929688 35.082031 151.574219 33.289062 156.863281 29.726562 L 157.800781 29.085938 C 161.398438 26.65625 163.121094 23.125 162.941406 18.574219 C 162.808594 15.488281 161.824219 12.925781 161.5625 12.269531 C 158.226562 7.195312 154.070312 6.09375 151.148438 6.078125 C 151.132812 6.078125 151.097656 6.078125 151.082031 6.078125 C 146.714844 6.078125 142.097656 8.472656 139.847656 11.90625 C 134.148438 20.578125 128.910156 20.054688 127.910156 19.855469 C 126.265625 19.527344 125.199219 17.933594 125.527344 16.308594 C 125.839844 14.75 127.300781 13.695312 128.863281 13.894531 C 129.140625 13.878906 131.523438 13.566406 134.773438 8.605469 C 138.171875 3.398438 144.777344 -0.03125 151.179688 0 C 157.488281 0.03125 163.023438 3.300781 166.785156 9.179688 C 166.847656 9.296875 166.929688 9.410156 166.980469 9.542969 C 167.046875 9.707031 168.789062 13.484375 168.984375 18.296875 C 169.261719 24.980469 166.570312 30.449219 161.183594 34.078125 L 160.230469 34.71875 C 155.648438 37.808594 152.890625 39.679688 151.773438 40.894531 C 151.230469 41.484375 151.117188 41.683594 151.179688 43.703125 C 151.363281 49.269531 148.40625 53.589844 148.273438 53.769531 C 148.175781 53.917969 148.0625 54.050781 147.929688 54.179688 C 147.648438 54.460938 140.867188 61.261719 128.386719 69.621094 C 116.921875 77.320312 98.25 87.847656 74.5 94.304688 C 39.46875 103.828125 12.15625 119.496094 8.066406 132.421875 C 7 135.804688 7.640625 138.84375 10.019531 141.71875 C 11.730469 143.773438 13.238281 144.804688 14.683594 144.886719 C 17.988281 145.070312 22.535156 140.652344 28.300781 135.082031 C 37.808594 125.871094 50.816406 113.273438 72.183594 106.882812 C 87.0625 102.433594 100.121094 101.285156 112.109375 103.371094 C 122.441406 105.175781 130.207031 109.101562 136.433594 112.253906 C 140.03125 114.078125 143.132812 115.636719 146.039062 116.492188 C 147.648438 116.96875 148.570312 118.644531 148.09375 120.253906 C 147.617188 121.863281 145.941406 122.78125 144.332031 122.304688 C 140.898438 121.304688 137.402344 119.53125 133.707031 117.65625 C 121.71875 111.597656 105.292969 103.304688 73.910156 112.699219 C 53.96875 118.660156 41.570312 130.683594 32.503906 139.453125 C 25.640625 146.105469 20.613281 150.964844 14.898438 150.980469 Z M 129.074219 13.894531 Z M 129.074219 13.894531 Z M 129.074219 13.894531 " fill-opacity="1" fill-rule="nonzero"/></g><path fill="#c9b6e4" d="M 274.636719 149.503906 C 269.117188 149.503906 264.386719 144.609375 257.917969 137.925781 C 249.492188 129.21875 237.945312 117.296875 219.4375 111.382812 C 190.566406 102.171875 174.585938 111.089844 162.925781 117.59375 C 159.113281 119.726562 155.8125 121.566406 152.511719 122.601562 C 151.738281 122.878906 148.042969 124.015625 144.644531 122.191406 C 143.117188 121.371094 142.542969 119.464844 143.347656 117.9375 C 144.167969 116.410156 146.074219 115.835938 147.601562 116.640625 C 148.519531 117.132812 149.949219 116.820312 150.410156 116.671875 C 150.476562 116.640625 150.492188 116.640625 150.574219 116.625 C 153.285156 115.769531 156.339844 114.078125 159.871094 112.105469 C 165.945312 108.707031 173.515625 104.488281 183.453125 102.417969 C 195.066406 99.988281 207.464844 100.972656 221.34375 105.40625 C 241.363281 111.796875 253.53125 124.375 262.433594 133.554688 C 267.445312 138.730469 271.796875 143.214844 274.667969 143.214844 C 274.71875 143.214844 274.769531 143.214844 274.816406 143.214844 C 276.015625 143.148438 277.394531 142.128906 278.90625 140.191406 C 281.191406 137.25 281.75 134.113281 280.613281 130.601562 C 278.628906 124.457031 271.46875 117.378906 260.464844 110.660156 C 249.394531 103.894531 234.628906 97.671875 218.910156 93.121094 C 217.253906 92.644531 216.285156 90.902344 216.777344 89.230469 C 217.253906 87.570312 218.992188 86.601562 220.667969 87.09375 C 237.140625 91.875 252.039062 98.164062 263.75 105.308594 C 276.214844 112.910156 284.113281 120.992188 286.609375 128.679688 C 288.382812 134.164062 287.445312 139.484375 283.882812 144.066406 C 281.171875 147.566406 278.316406 149.339844 275.179688 149.503906 C 275.015625 149.503906 274.832031 149.503906 274.667969 149.503906 Z M 274.636719 149.503906 " fill-opacity="1" fill-rule="nonzero"/><path fill="#c9b6e4" d="M 219.765625 93.121094 C 219.488281 93.121094 219.191406 93.070312 218.894531 92.988281 C 218.335938 92.824219 205.082031 88.835938 189.480469 81.722656 C 168.277344 72.066406 153.710938 61.753906 146.1875 51.0625 C 145.21875 49.699219 145.546875 47.808594 146.925781 46.839844 C 148.289062 45.871094 150.179688 46.199219 151.148438 47.578125 C 167.71875 71.128906 220.109375 87.042969 220.636719 87.207031 C 222.230469 87.683594 223.148438 89.375 222.671875 90.96875 C 222.277344 92.285156 221.078125 93.121094 219.78125 93.121094 Z M 219.765625 93.121094 " fill-opacity="1" fill-rule="nonzero"/><path fill="#c9b6e4" d="M 148.207031 97.6875 C 148.207031 97.6875 159.394531 83.808594 165.402344 92.941406 C 172.777344 104.125 149.882812 120.433594 149.882812 120.433594 C 149.882812 120.433594 124.410156 103.878906 131.375 94.828125 C 138.339844 85.78125 148.207031 97.6875 148.207031 97.6875 Z M 148.207031 97.6875 " fill-opacity="1" fill-rule="evenodd"/><path fill="#c9b6e4" d="M 149.882812 123.4375 C 149.308594 123.4375 148.734375 123.273438 148.242188 122.945312 C 146.285156 121.664062 129.027344 110.203125 127.300781 100.085938 C 126.859375 97.441406 127.433594 94.976562 128.992188 92.972656 C 131.851562 89.261719 135.117188 88.441406 137.351562 88.40625 C 137.417969 88.40625 137.46875 88.40625 137.535156 88.40625 C 141.867188 88.40625 145.746094 91.132812 148.144531 93.285156 C 150.917969 90.527344 155.746094 86.570312 160.691406 86.816406 C 162.726562 86.914062 165.632812 87.765625 167.949219 91.28125 C 170.625 95.355469 171.890625 102.402344 162.695312 112.878906 C 157.71875 118.546875 151.886719 122.714844 151.640625 122.898438 C 151.117188 123.273438 150.507812 123.457031 149.882812 123.457031 Z M 137.535156 94.453125 C 137.535156 94.453125 137.484375 94.453125 137.449219 94.453125 C 136.597656 94.46875 135.285156 94.714844 133.789062 96.667969 C 133.261719 97.34375 133.097656 98.097656 133.28125 99.082031 C 134.167969 104.289062 143.25 112.15625 149.800781 116.722656 C 155.894531 111.941406 167.160156 101.085938 162.890625 94.617188 C 161.90625 93.105469 161.003906 92.90625 160.394531 92.875 C 157.207031 92.710938 152.398438 97.34375 150.574219 99.609375 C 150 100.316406 149.144531 100.726562 148.242188 100.726562 C 148.242188 100.726562 148.242188 100.726562 148.226562 100.726562 C 147.320312 100.726562 146.46875 100.332031 145.894531 99.640625 C 144.757812 98.292969 140.835938 94.484375 137.535156 94.484375 Z M 137.535156 94.453125 " fill-opacity="1" fill-rule="nonzero"/></svg>