<svg xmlns="http://www.w3.org/2000/svg" xmlns:xlink="http://www.w3.org/1999/xlink" preserveAspectRatio="xMidYMid meet" version="1.0" viewBox="0.0 0.0 361.7 505.7" zoomAndPan="magnify" style="fill: rgb(0, 0, 0);" original_string_length="7286"><g id="__id189_snaj04nfd"><path d="M361.68,457.09c-3.03-18.61-21.75-80.95-47.67-144.99c-22.37-55.26-55.93-126.23-89.02-151.24 c0.14-6.63,3.14-19.42,8.91-38.04c6.71-21.66,14.88-43.66,14.96-43.88l0.16-0.44l-0.23-0.4c-0.18-0.31-17.75-31.94-5.04-72.06 l0.3-0.96L227.63,0l-0.17,1.15c-2.77,18.83-25.77,36.26-51.29,38.86c-12.44,1.27-42.82,0.23-56.24-36.67l-0.31-0.86l-18.59,4.94 l0.25,0.96c8.96,34.56,9.13,58.2,0.53,74.39l-0.25,0.48l0.26,0.47c0.11,0.21,11.51,20.79,18.98,43.59v0 c5.02,15.29,7.15,28.07,6.33,37.99C97.31,192.77,69.01,242.97,43,314.5C22.07,372.07,8.29,428.25,2.4,452.24 c-0.94,3.83-1.69,6.9-2.26,9.09L0,461.88l0.4,0.4c16.94,16.95,27.54,10.96,34.55,7c2.33-1.31,4.33-2.46,5.94-2.38 c2.8,0.11,5.34,3.26,8.28,6.9c3.77,4.66,8.46,10.46,15.77,12.13c10.43,2.37,17.16,1.04,23.11-0.14c5.03-0.99,9.37-1.85,14.92-0.17 c5.94,1.8,6.48,4.06,7.05,6.45c0.55,2.29,1.16,4.89,6.61,5.98c7.25,1.45,9.64-1.17,12.42-4.21c2.06-2.26,4.4-4.82,9.45-6.5 c8.84-2.95,16.3,2.57,21.23,6.23c1.55,1.15,2.88,2.14,3.99,2.67c5.68,2.72,10.5,3.76,14.74,3.76c7.38,0,12.96-3.15,18.1-6.06 c3.45-1.95,6.71-3.79,10.22-4.54c6.19-1.32,9.84,0.5,13.37,2.27c3.11,1.56,6.33,3.17,10.92,2.3c3.97-0.74,6.66-3.19,9.02-5.34 c3.41-3.11,5.88-5.35,10.95-1.97c15.77,10.51,23.31,2.5,28.81-3.36c0.64-0.68,1.26-1.34,1.88-1.96c2.2-2.2,4.05-0.95,7.41,1.64 c3.4,2.62,7.63,5.87,13.14,2.86c2.77-1.51,4.89-3.57,6.94-5.55c5.08-4.92,9.89-9.58,24.3-4.77c8.02,2.67,13.98,2.85,18.23,0.56 c5.78-3.12,7.69-10.3,9.71-17.9l0.23-0.88L361.68,457.09z" style="fill: rgb(111, 53, 165);"/></g><g id="__id190_snaj04nfd"><path d="M132.58,166.59c25.54,3.9,79.02,2.27,91.41-5.25c61.38,45.69,130.64,258.67,136.7,295.9 c-3.46,12.99-6.06,24.25-26.85,17.32c-20.77-6.93-22.51,5.2-32.03,10.39c-9.52,5.2-14.71-10.39-20.77-4.33 c-6.06,6.06-12.63,16.39-29.43,5.2c-9.53-6.35-11.47,5.44-20.7,7.17c-9.24,1.73-12.19-7.17-24.32-4.57 c-12.12,2.6-20.77,17.29-42.43,6.92c-4.45-2.13-13.85-12.98-25.97-8.94s-9.47,13.05-21.35,10.67c-10.1-2.02-1.15-8.65-13.57-12.4 c-12.41-3.75-18.94,4.64-38.09,0.29c-12.7-2.89-17.03-18.76-24.24-19.05c-7.22-0.29-17.61,17.9-39.83-4.33 c7.79-30.3,51.36-226.54,126.98-295.8C129.46,166.07,130.97,166.34,132.58,166.59z" style="fill: rgb(207, 184, 237);"/></g><g id="__id191_snaj04nfd"><path d="M228.44,1.29l14.36,4.44c-13,41.04,5.13,72.86,5.13,72.86s-8.18,21.99-14.98,43.93 c-38.27,11-80.04,10.94-111.21,4.49c-7.59-23.16-19.05-43.77-19.05-43.77c9.81-18.48,7.51-44.45-0.45-75.1l16.75-4.45 C142.26,67.64,222.97,38.57,228.44,1.29z" style="fill: rgb(207, 184, 237);"/></g><g id="__id192_snaj04nfd"><path d="M132.58,166.59c-1.61-0.26-3.13-0.53-4.5-0.82c1.05-11.53-2.01-25.57-6.34-38.77 c31.17,6.45,72.93,6.51,111.21-4.49c-4.83,15.59-8.96,31.16-8.96,38.83C211.6,168.86,158.12,170.5,132.58,166.59z" style="fill: rgb(132, 93, 168);"/></g><g id="__id193_snaj04nfd" style="fill: rgb(111, 53, 165);"><path d="M361.68,457.09c-3.03-18.61-21.75-80.95-47.67-144.99c-22.37-55.26-55.93-126.23-89.02-151.24 c0.14-6.63,3.14-19.42,8.91-38.04c6.71-21.66,14.88-43.66,14.96-43.88l0.16-0.44l-0.23-0.4c-0.18-0.31-17.75-31.94-5.04-72.06 l0.3-0.96L227.63,0l-0.17,1.15c-2.77,18.83-25.77,36.26-51.29,38.86c-12.44,1.27-42.82,0.23-56.24-36.67l-0.31-0.86l-18.59,4.94 l0.25,0.96c8.96,34.56,9.13,58.2,0.53,74.39l-0.25,0.48l0.26,0.47c0.11,0.21,11.51,20.79,18.98,43.59v0 c5.02,15.29,7.15,28.07,6.33,37.99C97.31,192.77,69.01,242.97,43,314.5C22.07,372.07,8.29,428.25,2.4,452.24 c-0.94,3.83-1.69,6.9-2.26,9.09L0,461.88l0.4,0.4c16.94,16.95,27.54,10.96,34.55,7c2.33-1.31,4.33-2.46,5.94-2.38 c2.8,0.11,5.34,3.26,8.28,6.9c3.77,4.66,8.46,10.46,15.77,12.13c10.43,2.37,17.16,1.04,23.11-0.14c5.03-0.99,9.37-1.85,14.92-0.17 c5.94,1.8,6.48,4.06,7.05,6.45c0.55,2.29,1.16,4.89,6.61,5.98c7.25,1.45,9.64-1.17,12.42-4.21c2.06-2.26,4.4-4.82,9.45-6.5 c8.84-2.95,16.3,2.57,21.23,6.23c1.55,1.15,2.88,2.14,3.99,2.67c5.68,2.72,10.5,3.76,14.74,3.76c7.38,0,12.96-3.15,18.1-6.06 c3.45-1.95,6.71-3.79,10.22-4.54c6.19-1.32,9.84,0.5,13.37,2.27c3.11,1.56,6.33,3.17,10.92,2.3c3.97-0.74,6.66-3.19,9.02-5.34 c3.41-3.11,5.88-5.35,10.95-1.97c15.77,10.51,23.31,2.5,28.81-3.36c0.64-0.68,1.26-1.34,1.88-1.96c2.2-2.2,4.05-0.95,7.41,1.64 c3.4,2.62,7.63,5.87,13.14,2.86c2.77-1.51,4.89-3.57,6.94-5.55c5.08-4.92,9.89-9.58,24.3-4.77c8.02,2.67,13.98,2.85,18.23,0.56 c5.78-3.12,7.69-10.3,9.71-17.9l0.23-0.88L361.68,457.09z M103.82,83.23c8.52-16.49,8.4-40.17-0.37-74.39l14.92-3.96 c9.08,24.1,27.5,37.47,51.23,37.47c2.21,0,4.47-0.12,6.77-0.35c25.85-2.63,49.24-20.18,52.86-39.41l12.32,3.81 c-11.63,38.02,3.25,68.39,5.28,72.27c-1.16,3.14-8.5,23.15-14.68,43.03c-34.4,9.79-75.3,11.44-109.66,4.44 C115.61,105.3,105.56,86.42,103.82,83.23z M123.2,128.3c13.89,2.75,28.79,4.12,43.9,4.12c21.9,0,44.2-2.86,64.37-8.46 c-5.45,17.8-8.29,30.16-8.46,36.79c-5.77,3.17-20.54,5.6-39.84,6.51c-18.66,0.89-37.98,0.25-50.43-1.65 c-1.36-0.22-2.54-0.43-3.6-0.64C129.84,155.22,127.85,142.89,123.2,128.3z M359.55,457.67c-1.99,7.49-3.71,13.95-8.73,16.66 c-3.74,2.02-9.19,1.79-16.66-0.7c-15.56-5.19-21.03,0.11-26.31,5.23c-1.95,1.89-3.98,3.85-6.51,5.23 c-4.37,2.39-7.73-0.19-10.97-2.69c-3.05-2.34-6.5-5-10.03-1.47c-0.63,0.63-1.27,1.31-1.93,2.01c-5.57,5.92-11.89,12.64-26.25,3.07 c-6.36-4.24-9.94-0.99-13.39,2.16c-2.28,2.07-4.63,4.22-8.05,4.86c-3.93,0.73-6.59-0.59-9.66-2.13c-3.66-1.83-7.81-3.9-14.68-2.43 c-3.82,0.82-7.2,2.73-10.79,4.76c-8.05,4.55-16.37,9.25-31,2.24c-0.94-0.45-2.2-1.39-3.67-2.47c-4.19-3.1-10.09-7.47-17.27-7.47 c-1.84,0-3.77,0.29-5.77,0.95c-5.54,1.85-8.17,4.73-10.29,7.04c-2.66,2.91-4.41,4.82-10.56,3.6c-4.2-0.84-4.56-2.37-5.07-4.49 c-0.61-2.57-1.37-5.77-8.41-7.89c-6.03-1.82-10.81-0.88-15.88,0.12c-5.75,1.14-12.26,2.42-22.28,0.15 c-6.64-1.51-10.9-6.78-14.67-11.44c-3.25-4.02-6.06-7.49-9.75-7.64c-2.17-0.09-4.41,1.18-7,2.64c-6.82,3.85-16.13,9.11-31.76-6.28 c0.55-2.15,1.26-5.03,2.12-8.56c36.08-147.03,77.82-243.2,124.06-285.86c0.74,0.15,1.54,0.3,2.42,0.45 c-25.75,34.62-43.81,92.79-45.5,99.97l1.94,0.45c1.69-7.18,19.9-65.83,45.78-100.07c8.61,1.26,20.77,1.93,33.52,1.93 c23.26,0,48.42-2.22,57.36-7.06c32.69,24.81,66.01,95.34,88.26,150.31c25.77,63.67,44.39,125.58,47.51,144.35L359.55,457.67z" style="fill: inherit;"/><path d="M221.36,180.88l-1.64,1.13c30.75,44.37,91.03,218.93,92.61,244.17l1.99-0.12 c-0.78-12.5-15.9-61.87-35.18-114.84C268.32,281.49,241.04,209.28,221.36,180.88z" style="fill: inherit;"/><path d="M179.91,184.66c7.37,74.96,9.09,267.95,7.5,282.3l1.98,0.22c1.6-14.38-0.11-207.68-7.49-282.72 L179.91,184.66z" style="fill: inherit;"/><path d="M206.08,189.41c10.67,58.46,20,253.29,20.72,273.56l1.99-0.07c-0.72-20.28-10.06-215.28-20.75-273.85 L206.08,189.41z" style="fill: inherit;"/><path d="M233.03,289.95c4.43,26.25,13.38,139.36,14.5,159.56l1.99-0.11c-1.12-20.21-10.09-133.47-14.53-159.78 L233.03,289.95z" style="fill: inherit;"/><path d="M113.79,462.99l1.99-0.12c-1-16.68,3.08-68.16,9.92-125.19c7.88-65.72,17.29-122.57,25.81-156l-1.93-0.49 C130.17,257.33,111.86,430.62,113.79,462.99z" style="fill: inherit;"/><path d="M60.4,460.28l1.99,0.12c0.56-9.51,20.95-135.1,37.27-180.63l-1.87-0.67 C80.94,326.06,60.97,450.52,60.4,460.28z" style="fill: inherit;"/><path d="M127.11,476.09l1.95-0.42c-1.18-5.55,1.74-100.17,8.47-132.81l-1.95-0.4 C128.81,375.26,125.91,470.49,127.11,476.09z" style="fill: inherit;"/></g></svg>