<svg xmlns="http://www.w3.org/2000/svg" xmlns:xlink="http://www.w3.org/1999/xlink" width="346" zoomAndPan="magnify" viewBox="0 0 259.5 160.499995" height="214" preserveAspectRatio="xMidYMid meet" version="1.0"><defs><clipPath id="2f5a0b538d"><path d="M 157.980469 41.007812 L 169.371094 41.007812 L 169.371094 52.394531 L 157.980469 52.394531 Z M 157.980469 41.007812 " clip-rule="nonzero"/></clipPath><clipPath id="c617d96d56"><path d="M 163.675781 41.007812 C 160.53125 41.007812 157.980469 43.554688 157.980469 46.699219 C 157.980469 49.847656 160.53125 52.394531 163.675781 52.394531 C 166.820312 52.394531 169.371094 49.847656 169.371094 46.699219 C 169.371094 43.554688 166.820312 41.007812 163.675781 41.007812 Z M 163.675781 41.007812 " clip-rule="nonzero"/></clipPath><clipPath id="d38721a72a"><path d="M 132 50 L 258.101562 50 L 258.101562 159.253906 L 132 159.253906 Z M 132 50 " clip-rule="nonzero"/></clipPath><clipPath id="00f86db8ef"><path d="M 0.152344 50 L 126 50 L 126 159.253906 L 0.152344 159.253906 Z M 0.152344 50 " clip-rule="nonzero"/></clipPath></defs><g clip-path="url(#2f5a0b538d)"><g clip-path="url(#c617d96d56)"><path fill="#9c91c5" d="M 157.980469 41.007812 L 169.371094 41.007812 L 169.371094 52.394531 L 157.980469 52.394531 Z M 157.980469 41.007812 " fill-opacity="1" fill-rule="nonzero"/></g></g><path fill="#c9b6e4" d="M 201.667969 27.996094 C 201.441406 25.664062 201.113281 23.324219 200.609375 21.027344 C 199.925781 17.917969 198.921875 14.894531 197.417969 12.09375 C 194.804688 7.226562 190.484375 3.078125 185.15625 1.644531 C 179.089844 0.0078125 172.5 2.0625 167.351562 5.660156 C 162.199219 9.257812 158.222656 14.257812 154.316406 19.183594 C 146.769531 28.703125 139.222656 38.222656 131.679688 47.75 C 132.710938 48.914062 133.847656 49.976562 135.058594 50.941406 C 141.652344 56.167969 150.679688 58.5 159.625 58.480469 C 170.226562 58.453125 180.703125 55.242188 189.917969 49.996094 C 194.347656 47.472656 198.71875 44.238281 200.664062 39.527344 C 202.15625 35.925781 202.050781 31.871094 201.671875 27.992188 Z M 184.527344 27.59375 C 179.378906 29.210938 173.976562 29.796875 168.679688 30.84375 C 163.386719 31.894531 158.046875 33.480469 153.285156 36.671875 C 153.382812 36.597656 153.476562 36.515625 153.578125 36.433594 C 160.132812 31.082031 164.023438 22.847656 171.023438 18.089844 C 178.535156 12.988281 189.132812 12.992188 196.691406 17.980469 C 196.691406 17.984375 196.695312 17.984375 196.695312 17.984375 C 197.023438 18.195312 197.339844 18.417969 197.648438 18.65625 C 194.675781 23.160156 189.675781 25.972656 184.527344 27.59375 Z M 184.527344 27.59375 " fill-opacity="1" fill-rule="nonzero"/><path fill="#b49edd" d="M 200.664062 39.527344 C 198.71875 44.238281 194.347656 47.472656 189.917969 49.996094 C 180.703125 55.242188 170.226562 58.453125 159.625 58.480469 C 150.675781 58.5 141.648438 56.167969 135.058594 50.941406 C 142.445312 47.320312 144.710938 45.300781 153.578125 36.433594 C 153.476562 36.515625 153.382812 36.597656 153.285156 36.675781 C 158.046875 33.484375 163.382812 31.894531 168.679688 30.847656 C 173.976562 29.800781 179.378906 29.214844 184.527344 27.597656 C 189.675781 25.976562 194.675781 23.160156 197.648438 18.65625 C 197.339844 18.421875 197.023438 18.199219 196.695312 17.988281 C 197.542969 18.40625 199.4375 19.902344 200.609375 21.027344 C 201.113281 23.324219 201.441406 25.664062 201.667969 27.996094 C 202.050781 31.871094 202.15625 35.929688 200.660156 39.53125 Z M 200.664062 39.527344 " fill-opacity="1" fill-rule="nonzero"/><g clip-path="url(#d38721a72a)"><path fill="#c9b6e4" d="M 132.828125 50.957031 C 135.949219 60.53125 143.445312 67.976562 151.226562 74.324219 C 159.003906 80.679688 167.4375 86.453125 173.613281 94.386719 C 179.261719 101.648438 182.730469 110.347656 187.550781 118.191406 C 195.007812 130.335938 205.792969 140.394531 218.441406 146.742188 C 230.230469 154.457031 244.136719 158.863281 258.199219 159.335938 C 238.179688 153.800781 220.28125 140.847656 208.699219 123.523438 C 199.984375 110.480469 194.832031 95.246094 185.710938 82.488281 C 173.722656 65.726562 154.9375 54.03125 132.824219 50.953125 Z M 132.828125 50.957031 " fill-opacity="1" fill-rule="nonzero"/></g><path fill="#c9b6e4" d="M 56.683594 27.996094 C 56.910156 25.664062 57.242188 23.324219 57.742188 21.027344 C 58.425781 17.917969 59.429688 14.894531 60.933594 12.09375 C 63.546875 7.226562 67.867188 3.078125 73.199219 1.644531 C 79.261719 0.0078125 85.851562 2.0625 91 5.660156 C 96.152344 9.257812 100.128906 14.257812 104.035156 19.183594 C 111.582031 28.703125 119.128906 38.222656 126.671875 47.75 C 125.640625 48.914062 124.503906 49.976562 123.292969 50.941406 C 116.699219 56.167969 107.671875 58.5 98.730469 58.480469 C 88.125 58.453125 77.648438 55.242188 68.433594 49.996094 C 64.003906 47.472656 59.636719 44.238281 57.6875 39.527344 C 56.195312 35.925781 56.300781 31.871094 56.679688 27.992188 Z M 73.824219 27.59375 C 78.976562 29.210938 84.375 29.796875 89.671875 30.84375 C 94.964844 31.894531 100.304688 33.480469 105.066406 36.671875 C 104.96875 36.597656 104.875 36.515625 104.773438 36.433594 C 98.21875 31.082031 94.328125 22.847656 87.328125 18.089844 C 79.816406 12.988281 69.21875 12.992188 61.660156 17.980469 C 61.660156 17.984375 61.65625 17.984375 61.65625 17.984375 C 61.328125 18.195312 61.011719 18.417969 60.703125 18.65625 C 63.675781 23.160156 68.675781 25.972656 73.824219 27.59375 Z M 73.824219 27.59375 " fill-opacity="1" fill-rule="nonzero"/><path fill="#b49edd" d="M 57.691406 39.527344 C 59.636719 44.238281 64.007812 47.472656 68.4375 49.996094 C 77.652344 55.242188 88.128906 58.453125 98.730469 58.480469 C 107.675781 58.5 116.707031 56.167969 123.292969 50.941406 C 115.90625 47.320312 113.640625 45.300781 104.777344 36.433594 C 104.875 36.515625 104.972656 36.597656 105.070312 36.675781 C 100.304688 33.484375 94.972656 31.894531 89.671875 30.847656 C 84.378906 29.800781 78.976562 29.214844 73.828125 27.597656 C 68.675781 25.976562 63.679688 23.160156 60.703125 18.65625 C 61.015625 18.421875 61.332031 18.199219 61.660156 17.988281 C 60.808594 18.40625 58.917969 19.902344 57.746094 21.027344 C 57.242188 23.324219 56.910156 25.664062 56.683594 27.996094 C 56.304688 31.871094 56.199219 35.929688 57.695312 39.53125 Z M 57.691406 39.527344 " fill-opacity="1" fill-rule="nonzero"/><g clip-path="url(#00f86db8ef)"><path fill="#c9b6e4" d="M 125.523438 50.957031 C 122.402344 60.53125 114.90625 67.976562 107.128906 74.324219 C 99.347656 80.679688 90.914062 86.453125 84.742188 94.386719 C 79.089844 101.648438 75.621094 110.347656 70.804688 118.191406 C 63.34375 130.335938 52.558594 140.394531 39.910156 146.742188 C 28.121094 154.457031 14.214844 158.863281 0.152344 159.335938 C 20.171875 153.800781 38.070312 140.847656 49.652344 123.523438 C 58.371094 110.480469 63.519531 95.246094 72.640625 82.488281 C 84.628906 65.726562 103.414062 54.03125 125.527344 50.953125 Z M 125.523438 50.957031 " fill-opacity="1" fill-rule="nonzero"/></g><path fill="#b49edd" d="M 123.335938 41.035156 C 122.449219 41.035156 121.847656 41.914062 122.140625 42.75 C 126.300781 56.722656 115.046875 59.132812 131.804688 58.320312 C 134.660156 58.886719 136.667969 56.960938 136.480469 54.085938 C 136.371094 50.3125 137.246094 45.871094 135.441406 42.457031 C 132.171875 40.222656 127.699219 40.511719 123.335938 41.035156 Z M 123.335938 41.035156 " fill-opacity="1" fill-rule="nonzero"/></svg>